<svg xmlns="http://www.w3.org/2000/svg" viewBox="0 0 1600 800" preserveAspectRatio="xMidYMid slice"><defs><linearGradient id="sky" x1="0" y1="0" x2="0" y2="1"><stop stop-color="#071a46"/><stop offset=".42" stop-color="#283365"/><stop offset=".68" stop-color="#c55245"/><stop offset="1" stop-color="#07162b"/></linearGradient><radialGradient id="sun"><stop stop-color="#ffbf68" stop-opacity=".95"/><stop offset="1" stop-color="#ff6b4a" stop-opacity="0"/></radialGradient><linearGradient id="water" x1="0" y1="0" x2="0" y2="1"><stop stop-color="#0a2441"/><stop offset="1" stop-color="#020a16"/></linearGradient><filter id="glow"><feGaussianBlur stdDeviation="5"/></filter></defs><rect width="1600" height="800" fill="url(#sky)"/><circle cx="1220" cy="310" r="330" fill="url(#sun)" opacity=".5"/><g fill="#06111f"><path d="M0 510h85v-95h40v95h65V375h52v135h54V335h40v175h48V390h68v120h38V300h42v210h55V355h72v155h40V260h56v250h60V330h47v180h54V205h65v305h58V345h60v165h52V285h47v225h65V365h75v145h56V320h54v190h75V410h100v100H1600v160H0z"/><path d="M930 205l32-165 32 165z"/></g><g fill="#ffc66d" opacity=".8"><path d="M110 455h8v8h-8zm93-35h8v8h-8zm104-38h8v8h-8zm192-35h8v8h-8zm206-42h8v8h-8zm230-50h8v8h-8zm15 80h8v8h-8zm175 20h8v8h-8zm170 40h8v8h-8zm135-18h8v8h-8z"/></g><path d="M0 610h1600v190H0z" fill="url(#water)"/><g stroke="#f3a45d" opacity=".22" filter="url(#glow)"><path d="M300 620v150M600 620v120M950 620v170M1210 620v135M1450 620v155"/></g><g fill="none" stroke="#d79b68" stroke-width="10" opacity=".85"><path d="M1120 510C1250 405 1410 410 1600 490"/><path d="M1120 510h480"/></g><g stroke="#f6b66c" stroke-width="2" opacity=".7"><path d="M1170 475v35m80-70v70m90-80v80m95-65v65m90-45v45"/></g></svg>