<svg xmlns="http://www.w3.org/2000/svg" viewBox="0 0 1024 1024"><defs><linearGradient id="n" x1="0" y1="0" x2="1" y2="1"><stop stop-color="#04172e"/><stop offset=".72" stop-color="#0b315b"/><stop offset="1" stop-color="#07182c"/></linearGradient><linearGradient id="m" x1="0" y1="0" x2="1" y2="1"><stop stop-color="#f0cf69"/><stop offset=".38" stop-color="#b98b22"/><stop offset=".7" stop-color="#e7ebef"/><stop offset="1" stop-color="#87919d"/></linearGradient><filter id="glow"><feGaussianBlur stdDeviation="10" result="b"/><feMerge><feMergeNode in="b"/><feMergeNode in="SourceGraphic"/></feMerge></filter></defs><rect width="1024" height="1024" rx="224" fill="url(#n)"/><path d="M145 334h465l-62 88H212zM112 449h374l-61 83H173zM152 559h282l-58 78H210z" fill="url(#m)" opacity=".92"/><path d="M302 238h493l-40 121-282 300h298l-57 127H252l42-119 286-303H272z" fill="url(#m)"/><path d="M744 214l-35 92 57 13-78 115 31-87-56-14z" fill="#27b7ff" filter="url(#glow)"/><g transform="translate(650 505) scale(.64) rotate(8)"><path d="M74 242c-31-12-56-42-55-77 1-42 31-75 72-80l65-8 40 58-40 77-82 30z" fill="#c69b3c" stroke="#e9edf1" stroke-width="13"/><path d="M112 85l73-139 33 17-66 143z" fill="#cbd1d7"/><path d="M184-66c-2-29 14-57 42-71l-7 48 31 16 39-29c1 31-17 60-46 72-19 8-39 6-55-2z" fill="#d9dde1"/><path d="M151 111l109-141 29 23-100 151z" fill="#d3a32d"/><path d="M265-36l28-34 22 18-26 35z" fill="#dce1e5"/></g><circle cx="512" cy="512" r="407" fill="none" stroke="url(#m)" stroke-width="24" stroke-dasharray="1650 900" transform="rotate(-22 512 512)" opacity=".9"/></svg>